<svg id="Layer_1" data-name="Layer 1" xmlns="http://www.w3.org/2000/svg" width="200" height="330" viewBox="0 0 200 330">
  <defs>
    <style>
      .cls-1 {
        fill: #59190b;
      }

      .cls-2 {
        fill: #f2e2c4;
      }

      .cls-3 {
        fill: #d98c5f;
      }

      .cls-4 {
        fill: #f2b56b;
      }

      .cls-5 {
        fill: #f2d479;
      }
    </style>
  </defs>
  <path class="cls-1" d="M180.55,155.17c8.89,45.07,18,55.39,14.21,86.05-1.86,15-5.36,40.49-26.06,61.58-25.09,25.56-57.88,26.79-65.91,26.84-3.89,0-46.95-.42-74.61-34.74-14.69-18.23-18.09-37.39-19.73-47.36-5.25-31.78,4.67-50.14,13.42-85.26C42.38,79.92,19.54,53.79,47.92,24.12,50.31,21.62,73.07-1.46,104.76.44c27.65,1.65,46.2,21.38,52.1,28.42C181.13,57.79,165.63,79.63,180.55,155.17Z"/>
  <circle class="cls-2" cx="101.21" cy="71.09" r="51.71"/>
  <path class="cls-3" d="M149.76,61.23c-4,4.27-20.9-3.18-30.79-9.48-9.38-6-11.26-10.13-17.37-10.26-7.11-.15-9.32,5.39-20.52,11.84-9,5.15-24.59,11.45-28.42,7.11C49,56.31,56.21,42.76,64.5,34.38c14.64-14.79,34.27-15,37.1-15,5.15,0,20.61.84,33.55,12.24C146.09,41.26,153.66,57.08,149.76,61.23Z"/>
  <circle class="cls-3" cx="76.73" cy="96.36" r="6.32"/>
  <circle class="cls-3" cx="124.89" cy="96.36" r="6.32"/>
  <path class="cls-3" d="M110.68,108.59c-.21,2.14-5,3.56-8.68,3.56s-8.53-1.49-8.69-3.56c-.12-1.59,2.5-3.67,4.74-3.55,1.76.09,2.07,1.49,4,1.58,2.16.11,2.76-1.69,4.73-1.58S110.82,107.09,110.68,108.59Z"/>
  <path d="M83.84,64.78c.19.12-1.67,10.76-9.47,11-7.64.29-10.46-9.71-10.27-9.87s4.59,8.57,10.27,8.29S83.65,64.66,83.84,64.78Z"/>
  <path d="M136.63,64.62c.19.12-1.67,10.76-9.47,11-7.63.29-10.46-9.71-10.27-9.86s4.59,8.57,10.27,8.28S136.44,64.5,136.63,64.62Z"/>
  <path class="cls-4" d="M78.22,142.54A95.38,95.38,0,0,0,51.67,137c-10.65-.66-17.62-1.12-23.34,3.16-2.16,1.62-3.15,3.17-9.65,23.68-5.24,16.53-7.36,24.71-9.52,33.56-.58,2.39-1.12,4.94-1.75,8.28C5.47,216,4.5,221.19,4.19,227.8c-.33,7.11-.52,25.78,8.05,45,15.18,34,47.09,47.36,54.23,50.13a99.19,99.19,0,0,0,45,6.31c7.85-.76,38-4.19,60.9-29.6,21-23.39,22.85-50.87,23.34-58.42a150.72,150.72,0,0,0-.56-22.5,168.81,168.81,0,0,0-6.68-34.34,139.15,139.15,0,0,1-4.95-18.4c-.56-3-.68-4.2-1.49-8.44-1.8-9.38-2.69-14.08-3.73-15.55-1.46-2.07-4.85-4.83-33.29-3.4-20.46,1-23,3.18-23.33,4.74-.44,2.34,4.34,3.33,6.43,8.68,2.2,5.61.55,13.74-4,15.79-5.72,2.57-14.14-5.24-15.29-6.31-5.36-5-5.89-9.47-8.85-9.48s-3.49,4.5-8.85,9.48c-.78.71-10.17,9.25-16.1,6.31-4.35-2.16-4.94-9.58-4-14.21A18.7,18.7,0,0,1,78.22,142.54Z"/>
  <path class="cls-1" d="M59.92,148.61a15.4,15.4,0,0,1-.3-3,12.39,12.39,0,0,1,.07-1.36,2.2,2.2,0,0,1,.12-.63.54.54,0,0,1,.1-.2.78.78,0,0,1-.58.24c.54-.15-1,.29-.72.05,0,0-.1.54-.12.6-.13.45-.27.91-.41,1.36-.31.95-.66,1.89-1,2.81a.62.62,0,0,0,.49.92,2.46,2.46,0,0,0,1.79-.34,8.27,8.27,0,0,0,2.07-1.84,6.35,6.35,0,0,1,.86-.86s.45-.27.23-.17c.18,0,.21-.06.1,0s-.26,0,0,0l-.49-.92a3.77,3.77,0,0,1-1.71,1.56A9.1,9.1,0,0,0,58,148.68c-.35.41-.4.87.17,1.09a2.26,2.26,0,0,0,1.92-.29,4.27,4.27,0,0,1,1.47-.61c.47-.09.86-.13.92.49l.27-.69a2,2,0,0,1-.19.22l.12-.07c-.16.07-.17.08,0,0h0a3.2,3.2,0,0,1-.93,0c-1.05-.09-2.1-.24-3.15-.36a2.37,2.37,0,0,0-1.46.39c-.23.16-.68.54-.53.89.31.72.81,1.31,1.15,2a2.6,2.6,0,0,1,.27.9,1.58,1.58,0,0,1,0,.38.6.6,0,0,1-.06.19c-.11.16-.11.17,0,0l.7-.3-.15,0,.76-.09c.37.21.48.22.31,0a.49.49,0,0,0,0-.16,1.84,1.84,0,0,1-.06-.4,14.08,14.08,0,0,1-.07-1.45,28.8,28.8,0,0,1,.11-2.93c.11-1.25-2.17-.64-2.63-.14a2.54,2.54,0,0,1-.7.57l-.09,0-.28.12c.22-.09-.25.07-.3.09l-.55.13-.32.05c-.39.06-.79.1-1.19.14l1.27.49c0-.06,0,0-.07,0l.06,0,.19-.08c.49-.19,1-.42,1.44-.62.93-.39,1.87-.76,2.81-1.12.69-.26,1.35-1.27.28-1.53a4.86,4.86,0,0,1-3.21-1.69l-2.48,1.34,1.89,1.32.86.6a3,3,0,0,1,.87.69l-.12-.43c0,.32-.37.7-.55,1s-.45.62-.69.91a11.91,11.91,0,0,1-1.69,1.64l2.1.8,1.75-1.77a10.05,10.05,0,0,1,1.42-1.35.73.73,0,0,1,.19-.11s-.13.07-.17.05c.23.1.56.13.82.21a5.72,5.72,0,0,0,2.32.31c.57,0,1.52-.39,1.64-1s-.84-.76-1.28-.72a13.77,13.77,0,0,1-1.92-.48,4.67,4.67,0,0,0-3.06.55,9.36,9.36,0,0,0-2,1.69l-2,2.06c-.38.39-.36.88.17,1.1a2.21,2.21,0,0,0,1.93-.3,14.31,14.31,0,0,0,3.74-4.16c.23-.41.4-.84.07-1.26a6.69,6.69,0,0,0-1.36-1L56,144.27c-.7-.49-3.2.27-2.48,1.33.93,1.36,2.63,1.85,4.15,2.21l.28-1.53q-1.9.72-3.78,1.53c-.95.41-2.7,1.12-2.37,2.46.12.5.89.54,1.28.5,2.17-.22,4.57-.63,6.13-2.31l-2.63-.14a31.39,31.39,0,0,0-.08,4,3.39,3.39,0,0,0,.32,1.69,1.58,1.58,0,0,0,1.52.69A2.55,2.55,0,0,0,60.88,152c-.1-1.15-1-2-1.42-3l-2,1.28a31.34,31.34,0,0,0,4,.39c1.3,0,3.12-.38,3.84-1.63.33-.57-.17-1.25-.63-1.57a3.35,3.35,0,0,0-2.13-.43,8.87,8.87,0,0,0-4.28,1.43l2.1.81a4,4,0,0,1,.91-.81c.42-.28.85-.53,1.28-.8a5.89,5.89,0,0,0,2.23-2.2c.22-.45,0-.8-.49-.92a5,5,0,0,0-4.42,1.27c-.84.71-1.42,1.74-2.38,2.27l2.27.58a43.06,43.06,0,0,0,1.53-4.25c.17-.57.45-1.27,0-1.8a2.08,2.08,0,0,0-1.89-.57,3,3,0,0,0-2.15,1.14,3.29,3.29,0,0,0-.53,1.78,16.81,16.81,0,0,0,.27,4.42c.22,1.1,3.13.38,2.9-.78Z"/>
  <path class="cls-1" d="M141,149.15a14.72,14.72,0,0,1-.3-3,12.39,12.39,0,0,1,.07-1.36,2.34,2.34,0,0,1,.12-.64.5.5,0,0,1,.1-.19.83.83,0,0,1-.58.24c.53-.15-1,.29-.72,0,0,0-.1.53-.12.6-.13.45-.27.91-.42,1.36-.3.95-.65,1.89-1,2.81a.62.62,0,0,0,.49.92,2.51,2.51,0,0,0,1.79-.34,8.27,8.27,0,0,0,2.07-1.84,6.35,6.35,0,0,1,.86-.86s.45-.27.23-.17c.18-.05.21-.06.1,0s-.26,0,0,0l-.49-.92a3.74,3.74,0,0,1-1.72,1.56,9.45,9.45,0,0,0-2.34,1.79c-.34.41-.39.87.18,1.09a2.26,2.26,0,0,0,1.92-.29,4.3,4.3,0,0,1,1.46-.61c.48-.09.87-.13.93.49l.27-.69a2,2,0,0,1-.19.22.29.29,0,0,1,.12-.07c-.16.07-.17.08,0,0h0a3.59,3.59,0,0,1-.93,0c-1-.09-2.1-.24-3.15-.36a2.31,2.31,0,0,0-1.46.39c-.24.16-.68.54-.53.89.31.72.81,1.31,1.15,2a2.59,2.59,0,0,1,.26.9,1.2,1.2,0,0,1,0,.38.6.6,0,0,1-.06.19c-.11.16-.11.17,0,0l.7-.3-.15,0,.76-.09c.37.21.48.22.31,0a.49.49,0,0,0,0-.16,2.79,2.79,0,0,1-.07-.4,14.06,14.06,0,0,1-.06-1.45,26.09,26.09,0,0,1,.11-2.93c.11-1.25-2.17-.64-2.63-.14a2.54,2.54,0,0,1-.7.57l-.09,0-.29.12c.23-.09-.24.07-.29.09l-.55.13c.22,0-.26,0-.32.05-.4.06-.79.1-1.19.14l1.27.49c0-.06-.05,0-.07,0l.06,0,.19-.08c.49-.2,1-.42,1.44-.62.93-.39,1.87-.76,2.81-1.12.69-.26,1.35-1.27.28-1.53a4.91,4.91,0,0,1-3.21-1.69l-2.48,1.34,1.89,1.32.86.6a3,3,0,0,1,.87.69l-.12-.43c0,.32-.37.7-.56,1s-.44.62-.68.91A11.32,11.32,0,0,1,135.3,152l2.1.81,1.75-1.77a10.05,10.05,0,0,1,1.42-1.35.52.52,0,0,1,.19-.11s-.13.07-.17,0c.23.1.56.13.82.21a5.9,5.9,0,0,0,2.32.31c.57-.05,1.52-.39,1.63-1s-.83-.76-1.27-.73a13.63,13.63,0,0,1-1.92-.47,4.66,4.66,0,0,0-3.06.55,9.36,9.36,0,0,0-2,1.68l-2,2.07c-.38.39-.37.88.17,1.09a2.17,2.17,0,0,0,1.93-.29,14.44,14.44,0,0,0,3.74-4.16c.23-.41.4-.84.07-1.26a7.15,7.15,0,0,0-1.36-1l-2.58-1.8c-.7-.49-3.2.27-2.48,1.33.93,1.36,2.63,1.85,4.15,2.21l.28-1.53c-1.28.48-2.53,1-3.78,1.53-1,.41-2.7,1.12-2.37,2.46.12.5.88.53,1.27.5,2.18-.22,4.58-.63,6.14-2.31l-2.63-.14a29.65,29.65,0,0,0-.08,4,3.39,3.39,0,0,0,.32,1.69,1.58,1.58,0,0,0,1.52.69,2.56,2.56,0,0,0,2.59-2.72c-.1-1.15-1-2-1.42-3l-2,1.28a31.34,31.34,0,0,0,4,.39c1.3,0,3.12-.38,3.84-1.63.33-.57-.17-1.25-.63-1.57a3.35,3.35,0,0,0-2.13-.43,8.77,8.77,0,0,0-4.28,1.43l2.1.81a3.79,3.79,0,0,1,.91-.81c.42-.28.85-.53,1.28-.8a5.89,5.89,0,0,0,2.23-2.2c.22-.45,0-.8-.49-.92a5,5,0,0,0-4.42,1.27c-.84.71-1.42,1.74-2.39,2.27l2.28.58a43.06,43.06,0,0,0,1.53-4.25c.17-.57.45-1.27,0-1.81a2.1,2.1,0,0,0-1.89-.56,3,3,0,0,0-2.15,1.14,3.2,3.2,0,0,0-.53,1.78,16.84,16.84,0,0,0,.27,4.42c.22,1.1,3.13.38,2.9-.78Z"/>
  <path class="cls-1" d="M166.39,148.82a14.64,14.64,0,0,1-.3-3,12.38,12.38,0,0,1,.06-1.36,3.19,3.19,0,0,1,.12-.63,1.24,1.24,0,0,1,.1-.2.75.75,0,0,1-.58.24c.54-.15-1,.29-.71.05a4.54,4.54,0,0,0-.12.6c-.13.46-.27.91-.42,1.36-.31,1-.65,1.89-1,2.81a.62.62,0,0,0,.49.92,2.46,2.46,0,0,0,1.79-.34,8.08,8.08,0,0,0,2.07-1.84,5.76,5.76,0,0,1,.85-.86s.46-.27.23-.16l.1,0c-.25,0-.26,0,0,0l-.49-.92a3.67,3.67,0,0,1-1.71,1.56,9.33,9.33,0,0,0-2.34,1.79c-.35.41-.4.87.17,1.09a2.28,2.28,0,0,0,1.93-.29,4.34,4.34,0,0,1,1.46-.61c.47-.09.87-.13.93.49l.27-.69a2.09,2.09,0,0,1-.2.22.31.31,0,0,1,.13-.06c-.17.07-.17.07,0,0-.18,0-.19,0,0,0a3.64,3.64,0,0,1-.93,0c-1.06-.09-2.1-.24-3.15-.36a2.37,2.37,0,0,0-1.46.39c-.24.16-.68.55-.53.89.3.72.81,1.31,1.15,2a2.59,2.59,0,0,1,.26.9,1,1,0,0,1,0,.39.41.41,0,0,1,0,.18c-.11.16-.11.17,0,0l.7-.3-.16,0,.76-.09c.38.21.48.22.31,0a.47.47,0,0,0,0-.16,1.87,1.87,0,0,1-.07-.4c-.05-.48-.06-1-.07-1.45a28.82,28.82,0,0,1,.12-2.93c.1-1.25-2.17-.63-2.64-.14a2.15,2.15,0,0,1-.7.57l-.08,0-.29.12c.22-.09-.24.07-.3.09l-.54.13-.32,0c-.4.06-.8.1-1.2.14l1.28.5c0-.07-.06,0-.08,0,.15-.09.17-.11.07,0l.19-.08c.48-.19.95-.42,1.44-.62.93-.39,1.87-.76,2.81-1.12.69-.26,1.35-1.27.28-1.52a4.92,4.92,0,0,1-3.21-1.7L160.13,146l1.9,1.32.86.61a2.62,2.62,0,0,1,.86.68l-.11-.43a2.62,2.62,0,0,1-.56,1,8.7,8.7,0,0,1-.69.91,11.84,11.84,0,0,1-1.68,1.64l2.09.8,1.75-1.77a10.16,10.16,0,0,1,1.43-1.35.47.47,0,0,1,.18-.1s-.13.06-.16,0a6.39,6.39,0,0,0,.81.21,6,6,0,0,0,2.33.32c.57-.05,1.52-.4,1.63-1.05s-.84-.76-1.28-.72a13.66,13.66,0,0,1-1.91-.48,4.7,4.7,0,0,0-3.07.55,9.36,9.36,0,0,0-2,1.69l-2,2.06c-.39.39-.37.88.17,1.1a2.19,2.19,0,0,0,1.92-.3,14,14,0,0,0,3.74-4.16c.24-.41.41-.84.07-1.25a6.56,6.56,0,0,0-1.35-1l-2.58-1.81c-.7-.49-3.2.27-2.48,1.33.92,1.36,2.63,1.85,4.14,2.21l.28-1.52c-1.27.47-2.53,1-3.77,1.52-1,.42-2.7,1.12-2.37,2.46.12.5.88.54,1.27.5,2.18-.22,4.58-.63,6.14-2.31l-2.63-.14a31.43,31.43,0,0,0-.09,4,3.6,3.6,0,0,0,.32,1.69,1.6,1.6,0,0,0,1.53.69,2.55,2.55,0,0,0,2.59-2.72c-.1-1.15-1-2-1.43-3l-2,1.28a31.7,31.7,0,0,0,4,.39c1.31,0,3.12-.38,3.85-1.63.33-.57-.17-1.25-.63-1.57a3.38,3.38,0,0,0-2.14-.43,8.71,8.71,0,0,0-4.27,1.44l2.1.8a4,4,0,0,1,.9-.81c.42-.28.86-.53,1.28-.8a5.79,5.79,0,0,0,2.23-2.19c.23-.45,0-.81-.49-.93a5.09,5.09,0,0,0-4.41,1.27c-.85.71-1.43,1.74-2.39,2.27l2.28.58a44.7,44.7,0,0,0,1.52-4.25c.17-.57.45-1.27,0-1.8a2.09,2.09,0,0,0-1.9-.57,3.07,3.07,0,0,0-2.15,1.14,3.28,3.28,0,0,0-.52,1.78,16.79,16.79,0,0,0,.27,4.42c.21,1.1,3.12.38,2.9-.78Z"/>
  <path class="cls-1" d="M37.59,148.9a14.72,14.72,0,0,1-.3-3,12.39,12.39,0,0,1,.07-1.36,2.34,2.34,0,0,1,.12-.64.5.5,0,0,1,.1-.19A.83.83,0,0,1,37,144c.54-.15-1,.29-.71,0,0,0-.1.53-.12.6-.13.45-.27.91-.42,1.36-.31.95-.65,1.89-1,2.81a.62.62,0,0,0,.49.92,2.51,2.51,0,0,0,1.79-.34,8.27,8.27,0,0,0,2.07-1.84,5.83,5.83,0,0,1,.86-.86s.45-.28.22-.17c.19-.05.22-.06.11,0s-.27,0,0,0l-.49-.92A3.74,3.74,0,0,1,38,147.18,9.27,9.27,0,0,0,35.67,149c-.34.41-.39.87.17,1.09a2.28,2.28,0,0,0,1.93-.29,4.15,4.15,0,0,1,1.46-.61c.47-.09.87-.13.93.49l.27-.69a2,2,0,0,1-.19.22.24.24,0,0,1,.12-.07c-.16.07-.17.08,0,0h0a3.59,3.59,0,0,1-.93,0c-1-.09-2.1-.24-3.15-.36a2.31,2.31,0,0,0-1.46.39c-.24.16-.68.54-.53.89.31.72.81,1.31,1.15,2a2.59,2.59,0,0,1,.26.9,1.2,1.2,0,0,1,0,.38.6.6,0,0,1-.06.19c-.11.16-.11.17,0,0l.7-.3-.16,0,.77-.09c.37.21.48.22.31,0a.49.49,0,0,0,0-.16,2.79,2.79,0,0,1-.07-.4,14.06,14.06,0,0,1-.06-1.45,26.09,26.09,0,0,1,.11-2.93c.11-1.25-2.17-.64-2.63-.14a2.54,2.54,0,0,1-.7.57l-.09,0-.29.12c.23-.09-.24.07-.29.09l-.55.13c.21,0-.27,0-.32.05-.4.06-.8.1-1.2.14l1.28.49c0-.06,0,0-.07,0l.06,0,.19-.08,1.44-.62c.93-.39,1.87-.77,2.81-1.12.69-.26,1.35-1.27.28-1.53a4.91,4.91,0,0,1-3.21-1.69l-2.48,1.34,1.89,1.32.86.6a3,3,0,0,1,.87.69l-.12-.43c0,.32-.37.7-.56,1a9.9,9.9,0,0,1-.69.91,11.25,11.25,0,0,1-1.68,1.63l2.1.81,1.75-1.77a10.05,10.05,0,0,1,1.42-1.35.45.45,0,0,1,.19-.11s-.13.07-.17,0c.23.1.56.13.82.21a5.9,5.9,0,0,0,2.32.31c.57-.05,1.52-.39,1.63-1s-.84-.76-1.28-.73a13.86,13.86,0,0,1-1.91-.47,4.66,4.66,0,0,0-3.06.55,9.36,9.36,0,0,0-2,1.68l-2,2.07c-.38.39-.37.88.17,1.09a2.17,2.17,0,0,0,1.93-.29,14.27,14.27,0,0,0,3.73-4.16c.24-.41.41-.84.08-1.26a7.48,7.48,0,0,0-1.36-1l-2.58-1.8c-.7-.49-3.2.27-2.48,1.33.93,1.36,2.63,1.85,4.15,2.21l.27-1.53c-1.27.48-2.53,1-3.77,1.53-.95.41-2.7,1.12-2.37,2.46.12.5.88.53,1.27.5,2.18-.22,4.58-.63,6.14-2.31l-2.63-.14a29.65,29.65,0,0,0-.08,4,3.39,3.39,0,0,0,.32,1.69A1.57,1.57,0,0,0,36,155a2.57,2.57,0,0,0,2.59-2.72c-.1-1.15-1-2-1.42-3l-2,1.28a31.67,31.67,0,0,0,4,.39c1.3,0,3.11-.38,3.84-1.63.33-.57-.17-1.25-.63-1.57a3.37,3.37,0,0,0-2.13-.43,8.73,8.73,0,0,0-4.28,1.43l2.1.8a3.74,3.74,0,0,1,.91-.8c.41-.28.85-.53,1.28-.8a5.89,5.89,0,0,0,2.23-2.2c.22-.45,0-.8-.49-.92a5,5,0,0,0-4.42,1.27c-.85.71-1.42,1.74-2.39,2.27l2.28.58A43,43,0,0,0,39,144.71c.18-.57.46-1.27,0-1.81a2.11,2.11,0,0,0-1.9-.56A3,3,0,0,0,35,143.48a3.2,3.2,0,0,0-.53,1.78,16.84,16.84,0,0,0,.27,4.42c.22,1.1,3.12.38,2.9-.78Z"/>
  <path class="cls-1" d="M92.27,214.37c-1.9-1.77-14.53,18.41-35.36,19.15-22.32.79-37.25-21.32-39.49-19.15-2.58,2.49,11.25,37.46,37.42,37.42S94.58,216.53,92.27,214.37Z"/>
  <path class="cls-5" d="M84.16,194.29c-1.42-1.33-10.93,13.86-26.61,14.42-16.8.6-28-16.05-29.72-14.42-1.94,1.88,8.47,28.2,28.17,28.17S85.91,195.92,84.16,194.29Z"/>
  <path class="cls-3" d="M74.84,180.11c-1-.88-7.22,9.15-17.58,9.52-11.09.39-18.51-10.6-19.62-9.52-1.28,1.24,5.59,18.62,18.6,18.6S76,181.19,74.84,180.11Z"/>
  <path class="cls-1" d="M186.45,215.38c-1.9-1.77-14.53,18.42-35.36,19.16-22.32.79-37.25-21.33-39.49-19.16-2.58,2.5,11.25,37.46,37.42,37.42S188.76,217.55,186.45,215.38Z"/>
  <path class="cls-5" d="M178.34,195.31c-1.42-1.34-10.93,13.86-26.61,14.41-16.8.6-28-16-29.72-14.41-1.94,1.87,8.47,28.19,28.17,28.16S180.09,196.94,178.34,195.31Z"/>
  <path class="cls-3" d="M169,181.13c-1-.89-7.22,9.15-17.58,9.51-11.09.4-18.51-10.59-19.62-9.51-1.28,1.23,5.59,18.61,18.6,18.59S170.17,182.2,169,181.13Z"/>
  <path class="cls-1" d="M139.45,286.84c-1.89-1.77-14.52,18.42-35.36,19.16-22.31.79-37.24-21.33-39.48-19.16C62,289.34,75.86,324.3,102,324.26S141.77,289,139.45,286.84Z"/>
  <path class="cls-5" d="M131.35,266.77c-1.43-1.34-10.93,13.86-26.61,14.41-16.8.6-28-16-29.72-14.41-1.94,1.87,8.46,28.19,28.16,28.16S133.09,268.4,131.35,266.77Z"/>
  <path class="cls-3" d="M122,252.59c-.94-.89-7.21,9.15-17.57,9.51-11.09.4-18.51-10.59-19.62-9.51-1.28,1.23,5.59,18.61,18.6,18.59S123.17,253.66,122,252.59Z"/>
</svg>
